<?xml version="1.0" encoding="iso-8859-1"?>
<!-- Generator: Adobe Illustrator 19.0.0, SVG Export Plug-In . SVG Version: 6.00 Build 0)  -->
<svg version="1.1" id="Capa_1" xmlns="http://www.w3.org/2000/svg" xmlns:xlink="http://www.w3.org/1999/xlink" x="0px" y="0px"
	 viewBox="0 0 456 456" style="enable-background:new 0 0 456 456;" xml:space="preserve">
<g>
	<path d="M196,240h64c13.233,0,24-10.766,24-24v-32c0-13.234-10.767-24-24-24h-64c-13.234,0-24,10.766-24,24v32
		C172,229.234,182.766,240,196,240z M188,184c0-4.411,3.589-8,8-8h64c4.411,0,8,3.589,8,8v32c0,4.411-3.589,8-8,8h-64
		c-4.411,0-8-3.589-8-8V184z"/>
	<path d="M204,200h48c4.418,0,8-3.582,8-8s-3.582-8-8-8h-48c-4.418,0-8,3.582-8,8S199.582,200,204,200z"/>
	<path d="M348,256H108c-8.822,0-16,7.178-16,16v136c0,8.822,7.178,16,16,16h240c8.822,0,16-7.178,16-16V272
		C364,263.178,356.822,256,348,256z M108,408V272h240l0.002,136H108z"/>
	<path d="M412,256h-16V98.493c5.049-7.598,8-16.706,8-26.493V32c0-17.645-14.355-32-32-32H84C66.355,0,52,14.355,52,32v40
		c0,9.787,2.951,18.895,8,26.493V256H44c-8.822,0-16,7.178-16,16v136c0,8.822,7.178,16,16,16h16c0,17.645,14.355,32,32,32h272
		c17.645,0,32-14.355,32-32h16c8.822,0,16-7.178,16-16V272C428,263.178,420.822,256,412,256z M412,272v24h-16v-24H412z M68,32
		c0-8.823,7.178-16,16-16h288c8.822,0,16,7.177,16,16v40c0,17.645-14.355,32-32,32h-8V80c0-4.418-3.582-8-8-8h-32
		c-4.418,0-8,3.582-8,8v24H156V80c0-4.418-3.582-8-8-8h-32c-4.418,0-8,3.582-8,8v24h-8c-17.645,0-32-14.355-32-32V32z M316,152h16
		v16h-16V152z M316,136v-16h16v16H316z M316,104V88h16v16H316z M124,152h16v16h-16V152z M124,136v-16h16v16H124z M124,104V88h16v16
		H124z M60,272v24H44v-24H60z M44,408v-96h16v96H44z M380,424c0,8.822-7.178,16-16,16H92c-8.822,0-16-7.178-16-16V113.542
		c7.066,4.098,15.26,6.458,24,6.458h8v16c-4.418,0-8,3.582-8,8s3.582,8,8,8v24c0,4.418,3.582,8,8,8h32c4.418,0,8-3.582,8-8v-24
		c4.418,0,8-3.582,8-8s-3.582-8-8-8v-16h144v16c-4.418,0-8,3.582-8,8s3.582,8,8,8v24c0,4.418,3.582,8,8,8h32c4.418,0,8-3.582,8-8
		v-24c4.418,0,8-3.582,8-8s-3.582-8-8-8v-16h8c8.74,0,16.934-2.359,24-6.458V424z M396,408v-96h16v96H396z"/>
	<path d="M323,296H133c-4.418,0-8,3.582-8,8s3.582,8,8,8h167v8c0,4.418,3.582,8,8,8s8-3.582,8-8v-8h7c4.418,0,8-3.582,8-8
		S327.418,296,323,296z"/>
</g>
<g>
</g>
<g>
</g>
<g>
</g>
<g>
</g>
<g>
</g>
<g>
</g>
<g>
</g>
<g>
</g>
<g>
</g>
<g>
</g>
<g>
</g>
<g>
</g>
<g>
</g>
<g>
</g>
<g>
</g>
</svg>
